<svg xmlns="http://www.w3.org/2000/svg" width="640" height="360" viewBox="0 0 640 360"><path d="M0 0 C2.64 5.28 5.28 10.56 8 16 C13 14.33 16.56 12.62 20.95 9.93 C23 9 23 9 26 10 C27.07 11.58 27.07 11.58 28.04 13.6 C28.57 14.68 28.57 14.68 29.11 15.78 C29.46 16.53 29.82 17.28 30.19 18.06 C30.56 18.82 30.92 19.58 31.3 20.36 C32.21 22.24 33.11 24.12 34 26 C34.81 25.59 35.62 25.18 36.45 24.76 C37.53 24.21 38.61 23.67 39.69 23.12 C40.22 22.86 40.75 22.59 41.29 22.31 C44.48 20.71 47.67 19.27 51 18 C52.34 20.62 53.67 23.25 55 25.88 C55.38 26.62 55.76 27.37 56.16 28.14 C56.52 28.85 56.88 29.57 57.25 30.3 C57.75 31.29 57.75 31.29 58.27 32.3 C59 34 59 34 59 36 C60.77 35.04 62.54 34.08 64.31 33.12 C65.3 32.59 66.28 32.06 67.3 31.51 C69.89 30.16 69.89 30.16 71.54 28.74 C73 28 73 28 75.45 27.94 C79.29 29.54 80.17 32.27 81.81 35.94 C82.12 36.58 82.44 37.23 82.76 37.9 C85 42.65 85 42.65 85 45 C87.83 43.62 90.58 42.26 93.26 40.62 C94.43 39.91 94.43 39.91 95.62 39.19 C96.73 38.5 96.73 38.5 97.85 37.79 C100 37 100 37 102 37.38 C105.12 39.91 106.56 43.13 108.31 46.69 C108.68 47.38 109.06 48.08 109.44 48.79 C109.79 49.49 110.13 50.18 110.49 50.89 C110.96 51.82 110.96 51.82 111.44 52.77 C113.08 59.32 109.74 67.26 108.09 73.58 C107.79 74.72 107.49 75.86 107.2 77 C106.58 79.39 105.95 81.78 105.33 84.17 C104.55 87.15 103.77 90.13 103 93.11 C100.39 103.16 97.76 113.2 95.05 123.23 C94.89 123.81 94.73 124.4 94.57 125.01 C93.82 127.79 93.06 130.57 92.3 133.35 C90.66 139.37 89.17 145.4 87.88 151.5 C85.96 160.45 83.53 169.21 81 178 C80.6 179.41 80.19 180.83 79.79 182.24 C78.87 185.5 77.94 188.75 77 192 C69.73 190.67 63.06 188.3 56.19 185.62 C48.18 182.54 40.16 179.65 32 177 C31.99 175.89 31.97 174.78 31.96 173.63 C31.7 164.06 31.2 155.87 24.55 148.36 C19.99 144.19 15.27 142.76 9.12 143 C3.55 143.72 -0.13 145.98 -4 150 C-6.31 153.17 -7.76 156.28 -9 160 C-15.26 159.45 -20.62 157.97 -26.5 155.81 C-27.79 155.34 -27.79 155.34 -29.11 154.87 C-30.88 154.23 -32.65 153.58 -34.41 152.94 C-36.87 152.05 -39.35 151.19 -41.82 150.34 C-43.28 149.83 -44.73 149.32 -46.19 148.81 C-46.86 148.59 -47.54 148.36 -48.24 148.13 C-50.11 147.46 -50.11 147.46 -53 146 C-54.24 142.95 -53.94 140.89 -53.03 137.78 C-52.67 136.53 -52.67 136.53 -52.31 135.25 C-52.04 134.34 -51.78 133.44 -51.5 132.5 C-50.93 130.51 -50.37 128.51 -49.81 126.52 C-49.51 125.46 -49.21 124.4 -48.91 123.31 C-47.52 118.23 -46.25 113.13 -45 108.02 C-42.41 97.5 -39.69 87.03 -36.84 76.58 C-33.64 64.8 -30.64 52.96 -27.64 41.13 C-26.84 37.98 -26.03 34.84 -25.21 31.7 C-24.37 28.48 -23.59 25.25 -22.85 22.01 C-19.66 8.61 -19.66 8.61 -15.37 5.27 C-13.42 4.22 -13.42 4.22 -11.44 3.38 C-10.78 3.03 -10.12 2.68 -9.44 2.32 C-5.91 0.53 -4.1 0 0 0 Z " fill="#D31C23" transform="translate(279,83)"/><path d="M0 0 C2.53 1.22 3.41 2.59 4.94 4.94 C5.69 7.3 5.69 7.3 6.22 9.9 C6.42 10.86 6.62 11.82 6.83 12.81 C7.13 14.33 7.13 14.33 7.44 15.88 C7.87 17.95 8.3 20.02 8.73 22.09 C8.94 23.1 9.14 24.1 9.35 25.13 C10.1 28.72 10.91 32.3 11.75 35.88 C11.98 36.87 12.22 37.87 12.46 38.9 C12.62 39.57 12.77 40.25 12.94 40.94 C13.34 39.25 13.73 37.56 14.12 35.88 C14.26 35.32 14.39 34.77 14.52 34.19 C15.46 30.19 16.29 26.17 17.07 22.13 C17.38 20.6 17.38 20.6 17.69 19.04 C18.1 17 18.49 14.95 18.87 12.9 C20.06 7.06 21.06 3.54 25.94 -0.06 C28.06 -0.19 28.06 -0.19 29.94 0.94 C32.37 4.46 33.55 7.63 34.47 11.8 C34.72 12.91 34.98 14.03 35.24 15.18 C35.49 16.35 35.75 17.52 36 18.69 C36.26 19.84 36.52 20.99 36.78 22.15 C37.5 25.41 38.22 28.67 38.94 31.94 C39.33 33.71 39.73 35.49 40.12 37.27 C40.39 38.49 40.67 39.71 40.94 40.94 C41.16 39.9 41.39 38.87 41.62 37.8 C42.47 33.95 43.33 30.11 44.19 26.26 C44.56 24.6 44.93 22.93 45.29 21.27 C45.82 18.87 46.36 16.48 46.89 14.08 C47.05 13.34 47.21 12.6 47.38 11.84 C48.32 7.72 49.42 4.42 51.94 0.94 C53.81 -0.12 53.81 -0.12 55.94 -0.06 C58.75 1.25 58.75 1.25 60.94 3.94 C61.16 10.57 59.31 17.29 57.75 23.69 C55.26 34.22 53.13 44.8 51.08 55.42 C47.13 75.74 47.13 75.74 43.94 78.94 C41 79.38 41 79.38 37.94 78.94 C34.94 75.05 34.07 71.04 33.15 66.34 C33 65.62 32.85 64.9 32.7 64.16 C32.23 61.88 31.77 59.6 31.31 57.31 C30.85 55.02 30.38 52.73 29.91 50.44 C29.61 49.02 29.33 47.6 29.04 46.18 C28.47 43.36 27.85 40.67 26.94 37.94 C26.71 39.04 26.48 40.14 26.25 41.27 C25.41 45.36 24.55 49.44 23.68 53.53 C23.31 55.29 22.95 57.06 22.58 58.83 C22.06 61.37 21.52 63.91 20.98 66.45 C20.82 67.24 20.66 68.03 20.5 68.84 C19.63 72.88 18.84 75.83 15.94 78.94 C10.66 78.45 10.66 78.45 8.94 77.94 C7.03 75.64 6.5 73.52 5.96 70.62 C5.79 69.71 5.62 68.8 5.44 67.86 C5.25 66.86 5.07 65.85 4.88 64.81 C3.25 56.3 1.49 47.83 -0.43 39.37 C-0.63 38.46 -0.84 37.54 -1.05 36.6 C-1.88 32.89 -2.72 29.19 -3.58 25.49 C-4.18 22.87 -4.78 20.24 -5.37 17.61 C-5.55 16.83 -5.74 16.04 -5.93 15.23 C-6.91 10.83 -7.3 7.38 -6.06 2.94 C-4.02 0.76 -3.01 -0.09 0 0 Z " fill="#EAEAEA" transform="translate(538.0625,138.0625)"/><path d="M0 0 C0.93 -0.01 1.86 -0.01 2.81 -0.02 C3.81 -0 4.81 0.01 5.84 0.02 C6.87 0.03 7.9 0.03 8.96 0.03 C11.14 0.03 13.32 0.05 15.5 0.07 C18.83 0.11 22.16 0.12 25.5 0.11 C27.61 0.12 29.73 0.14 31.84 0.15 C32.84 0.15 33.84 0.15 34.87 0.16 C35.8 0.17 36.73 0.18 37.69 0.2 C38.5 0.2 39.32 0.21 40.16 0.22 C43.88 0.66 46.43 2.24 48.97 4.92 C50.31 6.34 51.58 7.62 53.1 8.86 C57.82 14.71 56.7 23.48 56.67 30.53 C56.68 31.79 56.68 33.05 56.68 34.32 C56.68 36.94 56.68 39.57 56.67 42.2 C56.66 45.57 56.66 48.94 56.68 52.31 C56.68 54.9 56.68 57.5 56.68 60.1 C56.67 61.34 56.68 62.58 56.68 63.83 C56.69 65.56 56.68 67.29 56.67 69.02 C56.67 70.01 56.66 70.99 56.66 72.01 C56.4 74.52 56.18 75.7 54.41 77.49 C51.41 77.8 51.41 77.8 48.41 77.49 C45.79 74.87 46.16 73.74 46.15 70.09 C46.15 68.96 46.14 67.83 46.13 66.67 C46.13 66.07 46.13 65.46 46.13 64.84 C46.14 62.95 46.12 61.06 46.11 59.17 C46.06 53.79 46.03 48.41 46.03 43.03 C46.02 39.74 46 36.45 45.96 33.16 C45.95 31.91 45.95 30.66 45.96 29.4 C45.96 27.65 45.94 25.89 45.92 24.14 C45.92 23.14 45.92 22.15 45.91 21.12 C45.28 17.8 43.87 16.7 41.41 14.49 C41.41 13.83 41.41 13.17 41.41 12.49 C37.45 12.49 33.49 12.49 29.41 12.49 C29.42 15.33 29.42 15.33 29.44 18.24 C29.47 24.5 29.5 30.76 29.51 37.02 C29.52 40.82 29.54 44.62 29.56 48.42 C29.58 52.08 29.59 55.75 29.6 59.41 C29.6 60.81 29.61 62.21 29.62 63.61 C29.63 65.56 29.64 67.52 29.64 69.48 C29.64 70.59 29.64 71.71 29.65 72.85 C29.41 75.49 29.41 75.49 27.41 77.49 C24.35 77.67 24.35 77.67 21.41 77.49 C20.41 76.49 20.41 76.49 20.29 73.9 C20.29 72.17 20.29 72.17 20.29 70.41 C20.29 69.77 20.29 69.14 20.29 68.48 C20.3 66.38 20.3 64.27 20.31 62.17 C20.31 60.71 20.31 59.26 20.32 57.8 C20.32 53.96 20.33 50.12 20.34 46.29 C20.35 42.37 20.35 38.46 20.36 34.54 C20.37 26.86 20.39 19.17 20.41 11.49 C14.47 11.49 8.53 11.49 2.41 11.49 C2.41 13.41 2.42 15.34 2.42 17.33 C2.44 23.69 2.45 30.05 2.46 36.42 C2.47 40.27 2.47 44.13 2.48 47.99 C2.49 51.71 2.5 55.43 2.5 59.16 C2.51 60.58 2.51 62 2.51 63.42 C2.52 65.41 2.52 67.4 2.52 69.38 C2.52 70.52 2.53 71.65 2.53 72.82 C2.41 75.49 2.41 75.49 1.41 77.49 C-3.92 77.72 -3.92 77.72 -6.27 76.9 C-8.44 74.59 -8.01 71.81 -7.98 68.8 C-7.98 68.12 -7.99 67.43 -8 66.72 C-8.01 64.45 -8 62.18 -7.99 59.9 C-7.99 58.32 -7.99 56.74 -8 55.16 C-8 51.85 -8 48.53 -7.98 45.22 C-7.97 40.97 -7.98 36.73 -7.99 32.48 C-8 29.22 -8 25.96 -7.99 22.69 C-7.99 21.13 -7.99 19.56 -8 18 C-8.01 15.81 -8 13.62 -7.98 11.43 C-7.99 10.78 -7.99 10.13 -8 9.47 C-7.96 6.61 -7.67 4.63 -6.35 2.08 C-4.11 0.05 -3 -0.01 0 0 Z " fill="#FAEDED" transform="translate(265.591552734375,138.51416015625)"/><path d="M0 0 C5.37 0.59 5.37 0.59 7 1 C8.42 3.83 8.24 6.65 8.32 9.76 C8.34 10.42 8.36 11.08 8.38 11.77 C8.44 13.89 8.5 16.01 8.56 18.12 C8.61 19.56 8.65 21 8.69 22.43 C8.8 25.96 8.9 29.48 9 33 C9.88 33.04 10.76 33.08 11.66 33.12 C12.84 33.19 14.01 33.26 15.18 33.32 C16.9 33.41 16.9 33.41 18.66 33.51 C24.49 34.37 28.76 37.47 32.62 41.82 C36.38 47.74 36.32 53.54 36.34 60.37 C36.34 61.36 36.35 62.35 36.36 63.38 C36.37 65.47 36.37 67.57 36.37 69.67 C36.37 72.86 36.41 76.05 36.45 79.24 C36.46 81.28 36.46 83.32 36.46 85.37 C36.48 86.31 36.49 87.26 36.5 88.23 C36.46 95.3 34.89 100.58 30.29 106.02 C29.74 106.47 29.19 106.92 28.62 107.38 C27.81 108.07 27.81 108.07 26.98 108.77 C21.65 112.08 16.45 112.31 10.38 112.25 C9.25 112.26 9.25 112.26 8.1 112.27 C1.12 112.25 1.12 112.25 -2 110 C-3.15 107.7 -3.13 106.4 -3.14 103.84 C-3.15 102.97 -3.15 102.09 -3.16 101.2 C-3.16 100.24 -3.16 99.28 -3.16 98.29 C-3.17 97.28 -3.17 96.27 -3.18 95.23 C-3.19 91.89 -3.2 88.54 -3.2 85.2 C-3.21 83.46 -3.21 81.73 -3.22 80 C-3.23 75.16 -3.24 70.33 -3.24 65.5 C-3.24 59.26 -3.26 53.01 -3.29 46.76 C-3.31 41.93 -3.32 37.1 -3.32 32.27 C-3.32 29.39 -3.33 26.51 -3.35 23.62 C-3.36 20.4 -3.36 17.19 -3.36 13.97 C-3.37 13.01 -3.37 12.06 -3.38 11.08 C-3.34 4.59 -3.34 4.59 -1.48 1.38 C-0.99 0.92 -0.5 0.47 0 0 Z M9 47 C8.04 49.87 7.87 51.66 7.87 54.64 C7.87 55.58 7.86 56.51 7.86 57.48 C7.86 58.49 7.87 59.5 7.87 60.54 C7.87 61.58 7.87 62.61 7.86 63.68 C7.86 65.87 7.87 68.06 7.87 70.25 C7.87 73.62 7.87 76.98 7.86 80.35 C7.86 82.48 7.87 84.6 7.87 86.73 C7.87 87.74 7.86 88.75 7.86 89.8 C7.86 90.73 7.87 91.66 7.87 92.62 C7.87 93.44 7.87 94.27 7.87 95.12 C7.79 97.01 7.79 97.01 9 98 C16.17 98.76 16.17 98.76 22.62 96.25 C25.37 91.77 25.17 87.28 25.2 82.16 C25.21 81.03 25.21 81.03 25.22 79.87 C25.23 78.27 25.24 76.67 25.24 75.07 C25.25 72.64 25.28 70.21 25.31 67.77 C25.32 66.22 25.32 64.66 25.33 63.1 C25.34 62.38 25.35 61.66 25.37 60.91 C25.34 56.13 24.53 53.09 22 49 C19.12 46.92 16.75 46.77 13.25 46.88 C12.05 46.9 12.05 46.9 10.83 46.93 C9.92 46.96 9.92 46.96 9 47 Z " fill="#EBEBEC" transform="translate(38,105)"/><path d="M0 0 C3.01 0.45 3.69 0.96 5.5 3.38 C5.9 5.94 5.9 5.94 5.93 9.04 C5.94 9.61 5.95 10.17 5.96 10.76 C5.99 12.62 6 14.49 6.01 16.36 C6.03 17.65 6.05 18.95 6.07 20.24 C6.11 23.65 6.14 27.06 6.17 30.47 C6.2 33.95 6.25 37.43 6.29 40.9 C6.38 47.73 6.44 54.55 6.5 61.38 C6.84 60.92 7.19 60.46 7.54 59.99 C9.11 57.9 10.68 55.8 12.25 53.71 C12.79 52.99 13.33 52.27 13.88 51.53 C25.65 35.84 25.65 35.84 29.5 33.38 C32.12 33.44 32.12 33.44 34.5 34.38 C36.45 36.77 36.52 38.08 36.3 41.15 C35.37 44.89 33.68 47.32 31.31 50.25 C30.91 50.77 30.51 51.29 30.09 51.83 C28.29 54.16 26.45 56.44 24.54 58.68 C23.99 59.34 23.44 60.01 22.88 60.69 C22.14 61.52 22.14 61.52 21.4 62.36 C19.85 65.83 20.87 69.63 22.13 73.11 C22.92 74.89 23.76 76.63 24.62 78.38 C24.93 79.01 25.24 79.65 25.56 80.31 C26.53 82.34 27.51 84.36 28.5 86.38 C29.8 89.04 31.09 91.7 32.38 94.38 C32.67 94.97 32.97 95.57 33.28 96.19 C35.24 100.27 36.2 103.83 36.5 108.38 C35.06 110.81 35.06 110.81 33.5 112.38 C30.82 112.33 28.98 112.27 26.5 111.38 C24.59 109.29 23.6 106.89 22.5 104.31 C22.17 103.61 21.85 102.9 21.51 102.17 C20.48 99.92 19.49 97.65 18.5 95.38 C17.81 93.86 17.13 92.34 16.44 90.82 C11.5 79.85 11.5 79.85 11.5 77.38 C7.27 81.47 6.39 83.27 6.29 89.15 C6.26 90.31 6.23 91.46 6.2 92.65 C6.16 94.48 6.12 96.32 6.1 98.15 C6.07 99.92 6.02 101.69 5.98 103.46 C5.96 104.53 5.94 105.59 5.92 106.68 C5.5 109.38 5.5 109.38 4.08 111.24 C2.5 112.38 2.5 112.38 0.71 112.52 C-1.04 112.2 -2.77 111.79 -4.5 111.38 C-5.66 109.05 -5.63 107.71 -5.64 105.13 C-5.65 104.24 -5.65 103.35 -5.66 102.43 C-5.66 101.45 -5.66 100.47 -5.66 99.47 C-5.67 98.44 -5.67 97.41 -5.68 96.35 C-5.69 93.52 -5.7 90.69 -5.7 87.87 C-5.7 86.1 -5.71 84.34 -5.71 82.57 C-5.73 77.05 -5.74 71.53 -5.74 66.01 C-5.74 59.63 -5.76 53.25 -5.79 46.88 C-5.81 41.95 -5.82 37.02 -5.82 32.09 C-5.82 29.15 -5.83 26.21 -5.85 23.26 C-5.86 19.98 -5.86 16.7 -5.86 13.41 C-5.87 12.44 -5.87 11.46 -5.88 10.45 C-5.88 9.11 -5.88 9.11 -5.87 7.75 C-5.87 6.97 -5.87 6.19 -5.87 5.39 C-5.22 1.85 -3.47 0.52 0 0 Z " fill="#EFEFEF" transform="translate(190.5,104.625)"/><path d="M0 0 C2.38 0.81 2.38 0.81 4.38 2.81 C4.55 5.18 4.61 7.42 4.57 9.79 C4.57 10.47 4.56 11.16 4.56 11.87 C4.55 14.06 4.53 16.25 4.5 18.44 C4.49 19.92 4.48 21.41 4.47 22.89 C4.45 26.53 4.42 30.17 4.38 33.81 C5.71 33.79 5.71 33.79 7.06 33.76 C8.24 33.75 9.42 33.74 10.6 33.72 C11.47 33.7 11.47 33.7 12.36 33.69 C17.54 33.64 21.41 34.41 25.38 37.81 C30.01 43.44 32.49 48.17 32.54 55.52 C32.54 56.38 32.54 56.38 32.55 57.25 C32.57 59.14 32.57 61.02 32.58 62.91 C32.58 64.22 32.59 65.53 32.6 66.84 C32.61 69.59 32.61 72.33 32.62 75.08 C32.62 78.6 32.64 82.12 32.67 85.64 C32.69 88.35 32.7 91.06 32.7 93.77 C32.7 95.06 32.71 96.36 32.72 97.66 C32.74 99.48 32.74 101.29 32.73 103.1 C32.74 104.65 32.74 104.65 32.74 106.23 C32.38 108.81 32.38 108.81 31.01 110.65 C28.67 112.32 27.18 112.23 24.38 111.81 C22.74 110.63 22.74 110.63 21.38 108.81 C21 106.35 21 106.35 21.01 103.39 C21 102.29 20.99 101.18 20.99 100.04 C20.99 99.45 20.99 98.86 20.99 98.25 C21 96.39 20.99 94.54 20.98 92.69 C20.94 87.42 20.94 82.15 20.94 76.88 C20.94 73.65 20.92 70.42 20.89 67.2 C20.88 65.37 20.89 63.55 20.9 61.73 C20.89 60.06 20.89 60.06 20.87 58.36 C20.87 57.38 20.87 56.41 20.87 55.4 C20.24 52.09 18.95 50.92 16.38 48.81 C13.94 47.6 11.96 47.49 9.25 47.25 C8.34 47.17 7.43 47.08 6.49 47 C5.79 46.94 5.09 46.87 4.38 46.81 C4.38 47.58 4.39 48.35 4.4 49.15 C4.46 56.4 4.5 63.65 4.53 70.91 C4.55 74.64 4.57 78.37 4.6 82.1 C4.63 85.7 4.65 89.29 4.66 92.89 C4.67 94.27 4.68 95.64 4.69 97.01 C4.71 98.94 4.72 100.86 4.72 102.78 C4.72 103.88 4.73 104.97 4.74 106.1 C4.38 108.81 4.38 108.81 3.01 110.67 C0.67 112.31 -0.83 112.23 -3.62 111.81 C-5.67 110.25 -6.52 109.35 -7.01 106.8 C-7.01 106.02 -7.01 105.25 -7.01 104.45 C-7.02 103.56 -7.03 102.66 -7.04 101.75 C-7.04 100.28 -7.04 100.28 -7.03 98.79 C-7.04 97.76 -7.04 96.73 -7.05 95.67 C-7.07 92.85 -7.07 90.03 -7.06 87.2 C-7.06 84.85 -7.06 82.49 -7.07 80.13 C-7.08 74.58 -7.08 69.02 -7.07 63.46 C-7.06 57.73 -7.07 51.99 -7.1 46.26 C-7.12 41.34 -7.13 36.41 -7.12 31.49 C-7.12 28.55 -7.12 25.61 -7.14 22.67 C-7.15 19.39 -7.14 16.11 -7.13 12.84 C-7.14 11.86 -7.15 10.88 -7.16 9.88 C-7.15 8.99 -7.14 8.1 -7.13 7.18 C-7.13 6.4 -7.13 5.63 -7.13 4.83 C-6.62 2.81 -6.62 2.81 -4.76 1.03 C-2.62 -0.19 -2.62 -0.19 0 0 Z " fill="#F1F1F2" transform="translate(441.625,105.1875)"/><path d="M0 0 C4.79 3.18 7.01 7.94 8.24 13.49 C8.53 16.87 8.54 20.24 8.54 23.64 C8.54 24.61 8.55 25.58 8.55 26.58 C8.56 28.63 8.56 30.68 8.55 32.73 C8.55 35.85 8.57 38.96 8.6 42.08 C8.6 44.08 8.6 46.08 8.6 48.07 C8.61 49 8.62 49.92 8.63 50.87 C8.57 58.69 7.02 65.37 1.6 71.23 C-3.08 75.54 -7.72 76.16 -13.95 75.95 C-18.94 75.13 -22.16 72.96 -25.76 69.49 C-30.37 62.74 -31.5 56.54 -31.39 48.51 C-31.39 47.5 -31.4 46.49 -31.4 45.45 C-31.4 43.33 -31.38 41.21 -31.36 39.09 C-31.32 35.86 -31.34 32.64 -31.36 29.41 C-31.35 27.34 -31.34 25.27 -31.33 23.2 C-31.33 22.24 -31.34 21.29 -31.34 20.3 C-31.22 13.25 -29.68 7.87 -25.02 2.46 C-16.38 -4.43 -9.8 -5.28 0 0 Z M-18.76 14.49 C-19.62 17.06 -19.89 18.51 -19.92 21.13 C-19.93 21.85 -19.94 22.57 -19.95 23.32 C-19.96 24.09 -19.96 24.87 -19.96 25.66 C-19.97 26.47 -19.98 27.27 -19.98 28.1 C-19.99 29.8 -20 31.49 -20 33.19 C-20.01 35.78 -20.04 38.37 -20.07 40.96 C-20.08 42.61 -20.09 44.26 -20.09 45.91 C-20.1 46.68 -20.11 47.45 -20.13 48.24 C-20.1 53.7 -19.2 57.69 -15.51 61.93 C-12.59 62.86 -9.6 62.61 -6.76 61.49 C-3.98 58.95 -3.54 56.76 -3.36 53.15 C-3.33 51.38 -3.32 49.6 -3.33 47.83 C-3.32 46.42 -3.32 46.42 -3.31 44.99 C-3.31 43 -3.31 41.02 -3.32 39.03 C-3.32 36 -3.3 32.97 -3.26 29.93 C-3.26 28 -3.26 26.07 -3.27 24.14 C-3.25 23.24 -3.24 22.33 -3.23 21.39 C-3.25 16.29 -3.25 16.29 -5.68 11.92 C-8.4 10.05 -9.88 9.91 -13.08 10.09 C-15.85 10.74 -17.11 12.26 -18.76 14.49 Z " fill="#EBEBEB" transform="translate(165.76171875,141.51171875)"/><path d="M0 0 C5.65 3.14 9.48 7.36 11.58 13.52 C13.62 20.71 13.39 28.04 13.33 35.45 C13.31 37.93 13.33 40.41 13.35 42.89 C13.36 54.87 12.72 65.42 3.94 74.44 C-1.17 78.24 -6.93 78.34 -13.06 77.44 C-19.3 75.26 -22.26 71.28 -25.15 65.52 C-26.56 62.29 -27.19 59.69 -27.24 56.2 C-27.25 55.35 -27.27 54.5 -27.28 53.62 C-27.29 52.7 -27.29 51.78 -27.3 50.84 C-27.31 49.88 -27.32 48.93 -27.33 47.95 C-27.34 45.94 -27.35 43.92 -27.36 41.91 C-27.37 38.84 -27.42 35.78 -27.46 32.72 C-27.47 30.76 -27.48 28.8 -27.49 26.84 C-27.51 25.93 -27.52 25.02 -27.54 24.09 C-27.52 16.51 -25.28 11 -21.31 4.62 C-15.07 -1.45 -8.04 -3.53 0 0 Z M-15.06 16.44 C-15.93 19.04 -16.2 20.53 -16.22 23.19 C-16.23 23.93 -16.24 24.68 -16.25 25.44 C-16.26 26.24 -16.26 27.04 -16.27 27.87 C-16.27 28.69 -16.28 29.52 -16.28 30.37 C-16.29 32.12 -16.3 33.87 -16.3 35.62 C-16.31 38.3 -16.34 40.97 -16.38 43.64 C-16.38 45.34 -16.39 47.04 -16.39 48.74 C-16.4 49.54 -16.42 50.33 -16.43 51.15 C-16.41 56.47 -15.49 59.77 -11.81 63.81 C-8.85 64.87 -6.04 64.3 -3.06 63.44 C-0.48 61.54 -0.1 60.55 0.94 57.44 C1.05 56.17 1.11 54.89 1.13 53.61 C1.15 52.85 1.16 52.09 1.18 51.31 C1.22 47.83 1.26 44.35 1.29 40.88 C1.3 39.05 1.33 37.22 1.37 35.39 C1.42 32.74 1.45 30.1 1.46 27.45 C1.48 26.64 1.51 25.82 1.53 24.99 C1.51 19.99 0.68 17.22 -2.69 13.49 C-4.18 12.18 -4.18 12.18 -7.06 11.81 C-10.71 12.57 -12.44 13.82 -15.06 16.44 Z " fill="#E7E7E8" transform="translate(512.0625,139.5625)"/><path d="M0 0 C5.6 3.9 9.27 8.12 10.81 14.88 C11.12 18.23 11.14 21.58 11.15 24.95 C11.16 25.92 11.16 26.89 11.17 27.88 C11.18 29.92 11.18 31.96 11.18 34 C11.19 37.1 11.22 40.2 11.26 43.29 C11.27 45.28 11.27 47.27 11.27 49.27 C11.29 50.18 11.3 51.09 11.32 52.03 C11.27 58.97 10.07 66.26 5.27 71.59 C0.16 76.09 -4.52 77.47 -11.3 77.3 C-16.35 76.55 -19.56 74.37 -23.19 70.88 C-27.73 64.21 -28.93 58.09 -28.82 50.15 C-28.82 49.17 -28.82 48.18 -28.82 47.17 C-28.82 45.1 -28.81 43.03 -28.78 40.96 C-28.75 37.82 -28.76 34.67 -28.78 31.53 C-28.78 29.51 -28.77 27.49 -28.75 25.46 C-28.76 24.54 -28.76 23.61 -28.77 22.65 C-28.64 15.67 -27.31 9.26 -22.45 3.99 C-15.86 -2.04 -8.11 -4.76 0 0 Z M-16.19 15.88 C-17.59 19.76 -17.37 23.85 -17.39 27.93 C-17.4 28.71 -17.4 29.49 -17.41 30.29 C-17.42 31.94 -17.42 33.58 -17.43 35.23 C-17.44 37.73 -17.47 40.24 -17.5 42.75 C-17.51 44.35 -17.51 45.95 -17.52 47.55 C-17.53 48.67 -17.53 48.67 -17.55 49.81 C-17.53 55.19 -16.57 59.14 -12.94 63.31 C-9.94 64.27 -7.14 63.85 -4.19 62.88 C-0.73 59.54 -0.16 55.93 -0.04 51.29 C-0.03 49.86 -0.02 48.43 -0.02 47 C-0.02 46.24 -0.01 45.49 -0.01 44.7 C-0 43.1 -0 41.5 -0 39.89 C-0 37.45 0.02 35.01 0.04 32.56 C0.04 31 0.04 29.44 0.04 27.88 C0.05 27.15 0.06 26.42 0.06 25.68 C0.04 20.83 -0.66 17.2 -3.38 13.06 C-8.33 9.82 -12.96 11.41 -16.19 15.88 Z " fill="#EBEBEC" transform="translate(113.1875,140.125)"/><path d="M0 0 C2.62 0.38 2.62 0.38 5 1 C5.18 1.56 5.36 2.11 5.55 2.69 C6.81 6.5 8.09 10.27 9.56 14 C10.9 17.5 11.71 20.99 12.47 24.65 C13.03 27.13 13.74 29.52 14.5 31.94 C16.03 36.9 17.08 41.9 18 47 C18.14 46.51 18.28 46.02 18.43 45.52 C19.07 43.28 19.72 41.05 20.38 38.81 C20.6 38.04 20.82 37.27 21.05 36.48 C22.19 32.56 23.47 28.8 25 25 C25.38 23.49 25.71 21.97 26 20.44 C26.17 19.58 26.33 18.72 26.5 17.84 C26.86 15.83 27.17 13.81 27.46 11.79 C27.62 10.72 27.78 9.66 27.94 8.56 C28.07 7.57 28.2 6.59 28.34 5.57 C29.06 2.77 29.69 1.7 32 0 C34.56 -0.31 34.56 -0.31 37 0 C39 2 39 2 39.21 5.15 C39.1 9.06 38.43 12.8 37.62 16.62 C37.44 17.59 37.44 17.59 37.24 18.57 C36.49 22.25 35.41 25.52 34 29 C33.56 31.2 33.56 31.2 33.38 33.31 C33.3 34.01 33.23 34.71 33.15 35.43 C33.1 35.95 33.05 36.46 33 37 C32.34 37 31.68 37 31 37 C30.89 38.07 30.79 39.14 30.68 40.24 C29.96 45.97 28.56 51.52 27.19 57.12 C26.78 58.79 26.78 58.79 26.37 60.49 C24.69 67.37 22.9 74.19 20.87 80.97 C20.25 83.14 19.69 85.27 19.2 87.47 C18.95 88.57 18.7 89.68 18.44 90.81 C18.23 91.79 18.02 92.76 17.81 93.77 C17.54 94.51 17.27 95.24 17 96 C15.51 96.5 15.51 96.5 14 97 C13.75 97.76 13.5 98.53 13.25 99.31 C11.47 103.14 8.91 104.57 5 106 C2.55 106.3 0.48 106.2 -2 106 C-3.33 103.81 -4.05 102.52 -3.81 99.94 C-2.83 97.59 -2.03 96.54 0 95 C0.97 94.77 1.94 94.55 2.94 94.31 C6.24 93.26 6.24 93.26 7.64 90.1 C8.06 88.95 8.45 87.79 8.81 86.62 C9.02 86.05 9.22 85.47 9.43 84.88 C11.31 79.43 12.21 74.49 12.56 68.75 C12.61 68.1 12.65 67.45 12.69 66.78 C12.8 65.19 12.9 63.59 13 62 C12.34 62 11.68 62 11 62 C10.77 61.07 10.54 60.13 10.3 59.17 C8.39 51.47 6.42 43.79 4.38 36.12 C2.86 30.44 1.45 24.78 0.4 18.99 C0.01 17.06 -0.52 15.25 -1.12 13.38 C-2.11 9.57 -2.61 5.91 -2 2 C-1.34 1.34 -0.68 0.68 0 0 Z " fill="#FAEEEF" transform="translate(330,139)"/><path d="M0 0 C4.8 2.74 8.21 6.91 10.06 12.06 C9.9 15.82 8.51 17.29 5.94 19.94 C3.44 19.72 1.55 19.56 -0.26 17.72 C-0.84 17.02 -0.84 17.02 -1.44 16.31 C-3 14.57 -3.57 13.97 -5.93 13.83 C-8.1 14.13 -8.1 14.13 -11.06 14.94 C-11.48 15.97 -11.89 17 -12.31 18.06 C-12.66 18.93 -12.66 18.93 -13.02 19.82 C-13.09 23.25 -11.21 25.45 -9.06 27.94 C-6.25 30.59 -3.22 32.96 -0.2 35.35 C4.89 39.51 7.86 43.7 9.94 49.94 C10.66 58.61 10.35 65.51 4.7 72.46 C1.67 75.71 -1.17 77.66 -5.58 78.31 C-12.39 78.47 -16.9 77.53 -22.06 72.94 C-24.42 70.14 -25.25 67.96 -25.5 64.38 C-25 60.44 -24.13 59.34 -21.06 56.94 C-17.78 57.97 -15.86 59.02 -13.69 61.62 C-11.41 64.06 -11.41 64.06 -9.26 64.18 C-6.4 63.91 -4.52 63.47 -2.62 61.25 C-1.37 56.14 -1.37 56.14 -3.05 51.28 C-6.67 46.79 -11.11 43.38 -15.7 39.93 C-21.24 35.27 -24.42 29.87 -25.35 22.7 C-25.6 16.03 -23.84 10.83 -20.38 5.19 C-14.43 -0.59 -7.96 -2.76 0 0 Z " fill="#E8E8E8" transform="translate(414.0625,139.0625)"/><path d="M0 0 C1.11 0.34 1.11 0.34 2.25 0.69 C1.63 0.98 1.01 1.27 0.38 1.56 C-1.88 2.62 -1.88 2.62 -3.75 4.69 C-4.06 6.64 -4.06 6.64 -4.03 8.91 C-4.04 9.8 -4.05 10.69 -4.06 11.6 C-4.06 12.57 -4.07 13.55 -4.07 14.55 C-4.08 15.58 -4.09 16.6 -4.1 17.66 C-4.12 20.47 -4.14 23.28 -4.15 26.09 C-4.17 29.03 -4.2 31.97 -4.22 34.91 C-4.27 40.47 -4.31 46.03 -4.34 51.6 C-4.38 57.93 -4.43 64.26 -4.48 70.6 C-4.58 83.63 -4.67 96.66 -4.75 109.69 C-5.41 109.36 -6.07 109.03 -6.75 108.69 C-6.84 94.92 -6.91 81.15 -6.96 67.38 C-6.98 60.99 -7.01 54.59 -7.05 48.2 C-7.09 42.63 -7.12 37.06 -7.13 31.49 C-7.13 28.54 -7.14 25.59 -7.17 22.64 C-7.2 19.34 -7.21 16.05 -7.2 12.76 C-7.22 11.78 -7.23 10.8 -7.25 9.79 C-7.24 8.89 -7.24 8 -7.23 7.07 C-7.23 6.29 -7.24 5.51 -7.24 4.71 C-6.75 2.69 -6.75 2.69 -4.89 0.89 C-2.75 -0.31 -2.75 -0.31 0 0 Z " fill="#CCCCCE" transform="translate(441.75,105.3125)"/><path d="M0 0 C5.94 0 11.88 0 18 0 C18 20.79 18 41.58 18 63 C17.34 63 16.68 63 16 63 C16 42.87 16 22.74 16 2 C11.05 2 6.1 2 1 2 C1 21.8 1 41.6 1 62 C0.67 62 0.34 62 0 62 C0 41.54 0 21.08 0 0 Z " fill="#E36267" transform="translate(268,150)"/><path d="M0 0 C0.33 0 0.66 0 1 0 C1.33 35.97 1.66 71.94 2 109 C1.34 109 0.68 109 0 109 C-1.16 106.67 -1.13 105.33 -1.13 102.74 C-1.13 101.85 -1.13 100.96 -1.14 100.04 C-1.13 99.05 -1.13 98.07 -1.13 97.06 C-1.13 96.03 -1.13 94.99 -1.13 93.93 C-1.14 91.09 -1.14 88.26 -1.13 85.43 C-1.13 82.46 -1.13 79.5 -1.14 76.54 C-1.14 71.56 -1.14 66.59 -1.13 61.62 C-1.12 55.86 -1.13 50.1 -1.13 44.34 C-1.14 39.41 -1.14 34.47 -1.13 29.53 C-1.13 26.58 -1.13 23.63 -1.14 20.68 C-1.14 17.39 -1.13 14.1 -1.13 10.81 C-1.13 9.83 -1.13 8.84 -1.14 7.83 C-1.13 6.94 -1.13 6.05 -1.13 5.13 C-1.13 4.35 -1.13 3.57 -1.13 2.77 C-1 1 -1 1 0 0 Z " fill="#CECECF" transform="translate(186,107)"/><path d="M0 0 C2.55 2.55 2.26 3.52 2.3 7.06 C2.32 8.12 2.34 9.17 2.35 10.26 C2.36 11.4 2.37 12.54 2.38 13.72 C2.4 14.9 2.41 16.08 2.43 17.26 C2.48 20.37 2.51 23.48 2.54 26.59 C2.59 31.57 2.66 36.54 2.73 41.52 C2.75 43.26 2.77 45 2.79 46.74 C2.8 47.8 2.81 48.85 2.83 49.94 C2.84 50.87 2.85 51.8 2.86 52.76 C2.86 55.04 2.86 55.04 4 57 C6.02 58.13 6.02 58.13 8 59 C3.51 59.36 3.51 59.36 1.35 57.83 C-0.51 55.31 -0.36 53.63 -0.34 50.52 C-0.34 49.4 -0.34 48.28 -0.34 47.12 C-0.32 45.9 -0.31 44.68 -0.29 43.46 C-0.29 42.21 -0.28 40.95 -0.28 39.7 C-0.27 36.41 -0.24 33.12 -0.21 29.83 C-0.18 26.48 -0.16 23.12 -0.15 19.76 C-0.11 13.17 -0.06 6.59 0 0 Z " fill="#B6B6B9" transform="translate(463,158)"/><path d="M0 0 C0.56 0.27 1.11 0.54 1.69 0.81 C1.69 1.14 1.69 1.47 1.69 1.81 C0.75 1.95 -0.19 2.09 -1.15 2.24 C-3.39 3 -4.13 3.44 -5.2 5.58 C-5.88 8.04 -6.4 10.49 -6.88 13 C-7.07 13.92 -7.26 14.84 -7.47 15.78 C-7.88 17.75 -8.29 19.72 -8.68 21.69 C-9.55 25.98 -10.5 30.24 -11.44 34.51 C-12.41 38.94 -13.37 43.38 -14.31 47.81 C-14.97 47.48 -15.63 47.15 -16.31 46.81 C-16.73 44.53 -16.73 44.53 -16.94 41.75 C-17.01 40.83 -17.09 39.91 -17.16 38.96 C-17.21 38.25 -17.26 37.54 -17.31 36.81 C-16.65 38.13 -15.99 39.45 -15.31 40.81 C-14.91 39.13 -14.52 37.44 -14.12 35.75 C-13.99 35.2 -13.86 34.64 -13.73 34.07 C-12.79 30.06 -11.96 26.04 -11.18 22 C-10.87 20.48 -10.87 20.48 -10.56 18.92 C-10.15 16.87 -9.76 14.82 -9.38 12.77 C-6.67 -0.54 -6.67 -0.54 0 0 Z " fill="#A3A3A5" transform="translate(566.3125,138.1875)"/><path d="M0 0 C0.59 1.84 0.59 1.84 1 4 C0.25 5.4 -0.51 6.8 -1.27 8.19 C-2.77 11.94 -2.38 16.02 -2.33 20 C-2.33 20.95 -2.32 21.91 -2.32 22.89 C-2.32 24.9 -2.3 26.91 -2.28 28.92 C-2.25 31.99 -2.24 35.06 -2.23 38.12 C-2.23 40.08 -2.21 42.04 -2.2 44 C-2.2 44.91 -2.19 45.83 -2.19 46.77 C-2.14 51.29 -1.91 55.56 -1 60 C-3.96 57.04 -4.13 54.48 -4.18 50.47 C-4.19 49.56 -4.2 48.64 -4.22 47.7 C-4.22 46.71 -4.23 45.72 -4.24 44.71 C-4.25 43.69 -4.25 42.67 -4.26 41.62 C-4.28 39.45 -4.29 37.29 -4.3 35.13 C-4.31 31.84 -4.36 28.55 -4.4 25.26 C-4.41 23.16 -4.42 21.06 -4.43 18.96 C-4.44 17.98 -4.46 17 -4.48 16 C-4.46 9.72 -3.36 5.33 0 0 Z " fill="#B4B4B6" transform="translate(139,146)"/><path d="M0 0 C0.33 0 0.66 0 1 0 C0.02 9.78 -1.94 19.55 -5.24 28.82 C-6.64 32.83 -7.8 36.92 -9 41 C-9.66 40.67 -10.32 40.34 -11 40 C-10.47 35.75 -9.37 32.11 -7.82 28.12 C-5.31 21.65 -3.62 15.39 -2.47 8.53 C-1.91 5.54 -1.07 2.84 0 0 Z " fill="#E25E63" transform="translate(358,146)"/><path d="M0 0 C0.66 0.33 1.32 0.66 2 1 C1.55 1.96 1.09 2.92 0.62 3.91 C-1.26 8.3 -2.12 12.76 -3 17.44 C-4.15 23.56 -5.61 29.23 -8 35 C-9.36 31.28 -8.6 28.29 -7.64 24.59 C-7.48 23.98 -7.33 23.37 -7.18 22.75 C-6.85 21.46 -6.53 20.18 -6.19 18.9 C-5.69 16.94 -5.2 14.98 -4.71 13.02 C-4.4 11.77 -4.08 10.53 -3.76 9.28 C-3.62 8.69 -3.47 8.11 -3.32 7.51 C-2.58 4.67 -1.85 2.3 0 0 Z " fill="#A03338" transform="translate(261,91)"/><path d="M0 0 C-0.33 0.66 -0.66 1.32 -1 2 C-1.9 2.21 -1.9 2.21 -2.81 2.42 C-5.56 3.15 -6.91 4.4 -9 6.31 C-9.69 6.94 -10.38 7.57 -11.09 8.21 C-13.11 10.1 -15.09 12.01 -17 14 C-15.64 10 -13.84 7.37 -11 4.25 C-10.3 3.47 -9.6 2.69 -8.88 1.89 C-5.7 -1.31 -4.24 -1 0 0 Z " fill="#BABABC" transform="translate(225,139)"/><path d="M0 0 C6 7.71 6 7.71 6 11 C7.65 10.67 9.3 10.34 11 10 C9.75 11.56 9.75 11.56 8 13 C6.03 12.86 6.03 12.86 4 12 C2.73 10.04 2.73 10.04 1.75 7.62 C1.41 6.83 1.08 6.04 0.73 5.23 C0 3 0 3 0 0 Z " fill="#A33237" transform="translate(358,117)"/><path d="M0 0 C2.5 1.5 2.5 1.5 4 3 C2.33 3.04 0.67 3.04 -1 3 C-1.33 2.67 -1.66 2.34 -2 2 C-6.04 2.2 -10.12 2.87 -14 4 C-10.05 -0.33 -5.61 -0.68 0 0 Z " fill="#A1A1A3" transform="translate(109,138)"/><path d="M0 0 C2.75 0.25 2.75 0.25 5 1 C5.33 2.65 5.66 4.3 6 6 C5.34 6 4.68 6 4 6 C3.67 4.68 3.34 3.36 3 2 C0.69 2.66 -1.62 3.32 -4 4 C-2.31 1.94 -2.31 1.94 0 0 Z " fill="#A43136" transform="translate(352,111)"/><path d="M0 0 C3 1 3 1 3.98 2.96 C4.24 3.76 4.49 4.55 4.75 5.38 C5.14 6.56 5.14 6.56 5.55 7.77 C6 10 6 10 5 13 C4.16 11.21 3.33 9.42 2.5 7.62 C1.8 6.13 1.8 6.13 1.09 4.6 C0 2 0 2 0 0 Z " fill="#A5A6A8" transform="translate(202,182)"/><path d="M0 0 C0 0.33 0 0.66 0 1 C-1.41 1.53 -2.83 2.05 -4.25 2.56 C-5.04 2.85 -5.83 3.14 -6.64 3.44 C-9.19 4.05 -10.55 3.85 -13 3 C-8.34 0.27 -5.39 -0.32 0 0 Z " fill="#A8A8AA" transform="translate(411,138)"/><path d="M0 0 C-0.8 0.62 -1.61 1.24 -2.44 1.88 C-5.04 3.74 -5.04 3.74 -6 6 C-6.66 6 -7.32 6 -8 6 C-7.62 3.56 -7.62 3.56 -7 1 C-4.54 -0.23 -2.72 -0.07 0 0 Z " fill="#F0B2B5" transform="translate(367,139)"/><path d="M0 0 C0.99 0.33 1.98 0.66 3 1 C3 2.32 3 3.64 3 5 C2.34 5 1.68 5 1 5 C0.67 3.35 0.34 1.7 0 0 Z " fill="#C2C2C3" transform="translate(202,182)"/><path d="M0 0 C1.32 0.33 2.64 0.66 4 1 C3.67 1.99 3.34 2.98 3 4 C2.01 2.68 1.02 1.36 0 0 Z " fill="#C7C7C8" transform="translate(406,184)"/></svg>